<?xml version="1.0" standalone="no"?>
<!DOCTYPE svg PUBLIC "-//W3C//DTD SVG 20010904//EN"
 "http://www.w3.org/TR/2001/REC-SVG-20010904/DTD/svg10.dtd">
<svg version="1.0" xmlns="http://www.w3.org/2000/svg"
 width="3508.000000pt" height="2481.000000pt" viewBox="0 0 3508.000000 2481.000000"
 preserveAspectRatio="xMidYMid meet">

<g transform="translate(0.000000,2481.000000) scale(0.100000,-0.100000)"
fill="#000000" stroke="none">
<path d="M1610 15370 c-101 -17 -181 -75 -228 -164 l-27 -51 0 -395 c0 -393 0
-395 23 -438 36 -68 87 -117 151 -146 l59 -26 2608 2 2609 3 42 23 c60 32 111
86 142 151 l26 56 3 350 c3 298 1 359 -13 411 -24 88 -75 151 -159 194 l-69
35 -2561 1 c-1409 1 -2581 -2 -2606 -6z"/>
<path d="M20176 14574 c-554 -71 -1152 -362 -1566 -761 -405 -390 -634 -859
-716 -1468 -24 -180 -25 -562 -1 -735 69 -494 254 -930 555 -1310 93 -117 298
-322 412 -414 362 -289 784 -476 1256 -558 176 -30 606 -33 784 -5 269 43 552
133 795 254 204 101 269 148 693 492 56 46 102 87 102 90 0 8 -243 127 -280
136 -14 4 -142 53 -285 110 -358 142 -480 177 -666 195 -66 6 -134 6 -200 -1
-95 -9 -151 -22 -371 -85 -81 -24 -112 -27 -243 -28 -166 0 -258 15 -405 66
-111 39 -271 122 -373 195 -174 124 -356 338 -436 514 l-29 64 41 8 c23 4 854
10 1847 13 1993 6 1880 2 1938 69 38 43 49 81 63 215 14 136 5 532 -15 668
-89 593 -324 1053 -747 1468 -472 461 -1050 751 -1621 813 -131 15 -399 12
-532 -5z m574 -1209 c426 -94 767 -340 935 -675 21 -41 43 -91 51 -112 l13
-38 -1275 0 -1276 0 7 33 c27 126 130 294 259 423 197 198 462 328 771 380
108 18 413 11 515 -11z"/>
<path d="M9021 14529 c-572 -51 -1182 -353 -1617 -800 -200 -206 -342 -408
-470 -664 -341 -687 -381 -1473 -113 -2203 88 -240 265 -551 432 -757 89 -110
292 -305 408 -393 368 -275 817 -452 1304 -513 160 -20 474 -15 640 10 270 41
535 126 614 197 44 40 46 44 45 95 0 44 -12 80 -61 189 -69 153 -153 363 -212
530 -69 191 -102 230 -197 230 -26 0 -82 -10 -123 -22 -70 -21 -96 -23 -321
-23 -220 0 -256 2 -349 23 -279 63 -510 191 -716 397 -376 376 -516 884 -385
1400 124 493 472 876 937 1031 159 53 277 74 459 81 453 16 794 -109 1088
-401 201 -199 319 -391 390 -638 56 -195 56 -187 56 -1549 0 -874 3 -1266 11
-1294 12 -46 40 -80 84 -103 25 -13 61 -15 215 -12 102 3 318 4 480 5 327 0
333 1 373 64 l22 36 -4 2415 c-3 2301 -4 2417 -21 2457 -33 75 -25 74 -500 73
-230 0 -442 -5 -471 -10 -107 -20 -145 -68 -198 -249 -17 -58 -32 -106 -34
-107 -1 -1 -65 34 -142 78 -77 43 -196 107 -265 142 -450 228 -912 325 -1359
285z"/>
<path d="M15180 14504 c-14 -2 -65 -9 -115 -15 -548 -66 -1088 -335 -1499
-745 -416 -417 -670 -949 -747 -1569 -17 -131 -17 -500 -1 -640 82 -705 472
-1355 1082 -1801 149 -110 232 -160 415 -250 258 -127 522 -207 805 -245 136
-18 467 -16 620 5 529 71 1014 265 1322 530 85 74 183 190 175 209 -2 7 -174
198 -382 425 -369 404 -377 413 -400 398 -160 -105 -424 -232 -601 -289 -199
-65 -298 -81 -494 -81 -236 -1 -364 26 -555 119 -352 171 -633 489 -756 857
-90 269 -103 582 -34 853 108 429 470 834 873 979 144 51 300 77 507 83 212 6
323 -6 480 -52 161 -47 367 -158 489 -264 27 -23 55 -40 62 -37 8 3 196 178
418 388 l405 383 -62 63 c-364 373 -890 619 -1472 687 -116 13 -463 19 -535 9z"/>
<path d="M1597 13179 c-90 -21 -176 -91 -218 -177 l-24 -47 0 -410 c0 -400 1
-411 22 -457 27 -60 94 -127 158 -158 l50 -25 1490 0 1490 0 50 25 c64 31 124
91 155 155 l25 50 3 391 c3 382 2 392 -19 450 -28 74 -101 154 -172 185 l-52
24 -1460 2 c-831 0 -1476 -3 -1498 -8z"/>
<path d="M1604 10886 c-27 -13 -67 -43 -87 -66 -70 -82 -68 -62 -65 -791 3
-649 3 -654 25 -694 28 -54 100 -119 149 -136 30 -11 114 -14 374 -14 l335 0
57 28 c33 16 70 45 88 67 61 77 60 60 60 768 0 475 -3 655 -12 686 -16 55
-109 148 -164 164 -29 8 -143 12 -375 12 -330 0 -335 -1 -385 -24z"/>
</g>
</svg>
