<?xml version="1.0" standalone="no"?>
<!DOCTYPE svg PUBLIC "-//W3C//DTD SVG 20010904//EN"
 "http://www.w3.org/TR/2001/REC-SVG-20010904/DTD/svg10.dtd">
<svg version="1.0" xmlns="http://www.w3.org/2000/svg"
 width="3508.000000pt" height="2481.000000pt" viewBox="0 0 3508.000000 2481.000000"
 preserveAspectRatio="xMidYMid meet">

<g transform="translate(0.000000,2481.000000) scale(0.100000,-0.100000)"
fill="#000000" stroke="none">
<path d="M33290 20143 c-127 -24 -4017 -743 -4023 -743 -4 0 -7 -108 -7 -240
0 -192 3 -240 13 -240 29 0 2416 426 3247 580 239 44 452 80 473 80 52 0 82
-32 95 -101 6 -30 13 -175 17 -324 3 -148 12 -515 20 -815 19 -682 122 -5011
205 -8595 16 -709 39 -1702 51 -2205 22 -903 31 -2021 17 -2036 -4 -4 -58 1
-120 10 -122 18 -3932 651 -3985 662 l-33 7 0 -246 c0 -225 1 -246 18 -251 9
-3 109 -21 222 -41 113 -20 459 -81 770 -136 1510 -267 3446 -590 3455 -577 1
2 -29 1272 -66 2823 -37 1551 -117 4933 -178 7515 -61 2582 -115 4738 -119
4790 l-7 96 -65 -13z"/>
<path d="M23992 15895 c-131 -29 -167 -78 -184 -249 -15 -147 4 -639 27 -716
21 -66 74 -123 130 -139 100 -29 502 -40 734 -21 93 7 125 14 170 37 107 54
121 129 97 528 -25 423 -43 486 -151 540 l-60 30 -350 2 c-270 2 -364 -1 -413
-12z"/>
<path d="M28383 14349 c-298 -35 -593 -145 -851 -318 -118 -79 -243 -155 -247
-149 -1 2 -11 41 -23 88 -34 129 -58 170 -117 200 l-50 25 -456 3 c-513 4
-517 3 -544 -62 -20 -48 -20 -81 15 -1187 16 -525 37 -1183 46 -1464 9 -280
18 -905 21 -1388 l5 -878 552 3 c614 3 595 1 630 72 21 43 22 -23 -19 1276
-26 819 -38 1581 -26 1680 51 417 374 776 799 887 130 34 350 42 500 19 192
-29 387 -108 533 -217 81 -60 202 -185 256 -265 95 -139 167 -325 197 -504 20
-127 41 -637 86 -2105 11 -363 22 -677 25 -699 3 -21 12 -51 21 -68 30 -58 33
-58 610 -58 l527 0 -7 218 c-4 119 -15 469 -26 777 -11 308 -24 731 -30 940
-25 903 -48 1142 -141 1495 -199 749 -671 1295 -1344 1555 -287 111 -647 158
-942 124z"/>
<path d="M23820 14178 c0 -59 121 -4716 126 -4825 l6 -143 517 0 c516 0 517 0
561 23 29 14 52 35 63 57 21 40 21 75 -8 895 -21 602 -41 1363 -65 2390 -31
1352 -34 1430 -59 1495 -11 30 -32 69 -45 85 l-24 30 -536 3 c-439 3 -536 1
-536 -10z"/>
</g>
</svg>
